<?xml version="1.0" encoding="UTF-8"?>
<svg id="Layer_2" data-name="Layer 2" xmlns="http://www.w3.org/2000/svg" xmlns:xlink="http://www.w3.org/1999/xlink" viewBox="0 0 2129.43 557.08">
  <defs>
    <style>
      .cls-1 {
        fill: url(#linear-gradient-2);
      }

      .cls-2 {
        fill: #0569ff;
      }

      .cls-3 {
        fill: url(#linear-gradient);
      }
    </style>
    <linearGradient id="linear-gradient" x1="537.18" y1="538.12" x2="-44.23" y2="202.44" gradientUnits="userSpaceOnUse">
      <stop offset=".28" stop-color="#3755fd"/>
      <stop offset=".36" stop-color="#2f6df9"/>
      <stop offset=".58" stop-color="#1babf1"/>
      <stop offset=".77" stop-color="#0cd8eb"/>
      <stop offset=".92" stop-color="#03f4e8"/>
      <stop offset="1" stop-color="#00ffe7"/>
    </linearGradient>
    <linearGradient id="linear-gradient-2" x1="535.51" y1="339.03" x2="144" y2="112.99" xlink:href="#linear-gradient"/>
  </defs>
  <g id="Siora_2">
    <g>
      <g>
        <path class="cls-3" d="M596.83,430.16l-45.15-45.04C350.3,627.85-23.66,408.2,88.34,113.97c-.63-3.22-41.1-43.59-45.82-46.84-2.37-1.63-2.78-3.92-7.03-2.77C-37.92,215.25,4.76,399.37,143.13,495.41c129.77,90.08,300.89,80.76,419.72-23.2,6.92-6.05,37.99-33.95,33.98-42.04Z"/>
        <path class="cls-1" d="M173.13,151.89c89.16,22.15,93.68,148.1,5.16,176.04-13.51,4.26-26.55,1.64-38.32,7.34,55.12,92.24,160.01,138.62,263.97,108.15,146.91-43.05,210.75-222.9,121.26-347.03C416.16-54.88,190.88-21.65,125.91,150.97c16.2.42,31.11-3.09,47.22.92Z"/>
      </g>
      <g>
        <path class="cls-2" d="M871,451.15c-31.91,0-62.45-3.95-91.62-11.83-29.16-7.88-52.74-17.88-70.71-29.99l35.77-80.89c17.24,11,37.14,20.08,59.7,27.24,22.56,7.15,45.03,10.73,67.41,10.73,15.41,0,27.6-1.28,36.59-3.85,8.98-2.56,15.59-6.23,19.81-11,4.21-4.76,6.33-10.46,6.33-17.06,0-8.43-4.04-15.13-12.11-20.08-8.07-4.95-18.62-9.17-31.64-12.66-13.03-3.48-27.15-6.78-42.37-9.9-15.23-3.11-30.73-7.24-46.5-12.38-15.78-5.13-30.08-11.92-42.92-20.36-12.85-8.43-23.21-19.44-31.09-33.02-7.89-13.57-11.83-30.63-11.83-51.17,0-22.74,6.23-43.47,18.71-62.18,12.47-18.71,31.37-33.75,56.68-45.12,25.31-11.37,56.86-17.06,94.65-17.06,25.31,0,50.16,2.85,74.56,8.53,24.39,5.69,45.95,14.22,64.66,25.59l-33.02,80.34c-18.35-10.27-36.51-17.79-54.48-22.56-17.98-4.76-35.41-7.15-52.28-7.15-15.05,0-27.15,1.65-36.32,4.95-9.17,3.3-15.78,7.52-19.81,12.66-4.04,5.14-6.05,10.64-6.05,16.51,0,8.8,4.03,15.68,12.11,20.63,8.07,4.95,18.52,8.99,31.37,12.11,12.84,3.12,27.05,6.33,42.65,9.63,15.59,3.3,31.09,7.43,46.5,12.38,15.41,4.95,29.62,11.55,42.64,19.81,13.02,8.25,23.57,19.08,31.64,32.47,8.07,13.4,12.11,30.18,12.11,50.35,0,22.38-6.33,43.02-18.98,61.9-12.66,18.9-31.64,34.03-56.95,45.4-25.31,11.37-57.05,17.06-95.2,17.06Z"/>
        <path class="cls-2" d="M1138.97,112.19c-19.45,0-34.94-5.31-46.5-15.96-11.55-10.64-17.33-23.84-17.33-39.62s5.78-28.89,17.33-39.34c11.56-10.45,27.05-15.68,46.5-15.68s34.48,4.95,46.22,14.86c11.74,9.9,17.61,22.56,17.61,37.97,0,16.51-5.78,30.26-17.33,41.27-11.55,11.01-27.06,16.51-46.5,16.51ZM1086.69,443.44V144.65h104.55v298.79h-104.55Z"/>
        <path class="cls-2" d="M1408.59,448.4c-32.65,0-61.63-6.6-86.94-19.81-25.31-13.21-45.22-31.45-59.7-54.75-14.5-23.29-21.74-49.8-21.74-79.51s7.24-56.76,21.74-80.06c14.49-23.29,34.39-41.54,59.7-54.75,25.31-13.21,54.29-19.81,86.94-19.81s61.72,6.6,87.22,19.81c25.49,13.21,45.48,31.46,59.98,54.75,14.49,23.3,21.73,49.99,21.73,80.06s-7.25,56.22-21.73,79.51c-14.5,23.3-34.49,41.54-59.98,54.75-25.5,13.21-54.57,19.81-87.22,19.81ZM1408.59,365.31c11.74,0,22.29-2.75,31.64-8.25,9.35-5.5,16.87-13.66,22.56-24.49,5.68-10.82,8.53-23.75,8.53-38.79s-2.85-28.24-8.53-38.52c-5.69-10.27-13.21-18.16-22.56-23.66-9.35-5.5-19.9-8.25-31.64-8.25s-22.29,2.75-31.64,8.25c-9.35,5.5-16.88,13.4-22.56,23.66-5.69,10.27-8.53,23.11-8.53,38.52s2.84,27.98,8.53,38.79c5.68,10.82,13.21,18.98,22.56,24.49,9.36,5.5,19.9,8.25,31.64,8.25Z"/>
        <path class="cls-2" d="M1625.38,443.44V144.65h100.15v87.49l-15.41-24.76c9.17-22.37,23.57-39.25,43.2-50.62,19.62-11.37,43.56-17.06,71.81-17.06v94.65c-4.77-.73-8.99-1.19-12.66-1.38-3.67-.18-7.34-.27-11-.27-21.28,0-38.52,5.78-51.73,17.33-13.21,11.55-19.81,30.36-19.81,56.4v137.02h-104.55Z"/>
        <path class="cls-2" d="M2032.03,443.44v-55.58l-7.15-13.76v-102.35c0-16.51-5.05-29.25-15.13-38.24-10.09-8.98-26.14-13.48-48.15-13.48-14.31,0-28.89,2.39-43.75,7.15-14.86,4.77-27.43,10.82-37.69,18.16l-34.67-70.43c16.87-11.01,37.14-19.62,60.8-25.86,23.66-6.23,47.23-9.36,70.71-9.36,48.42,0,85.93,11.19,112.53,33.57,26.59,22.38,39.89,57.23,39.89,104.55v165.63h-97.4ZM1943.99,448.4c-23.48,0-43.56-4.04-60.25-12.11-16.7-8.06-29.35-19.07-37.97-33.02-8.62-13.94-12.93-29.35-12.93-46.22,0-18.34,4.68-34.3,14.03-47.87,9.36-13.57,23.84-23.94,43.47-31.09,19.62-7.15,44.66-10.73,75.11-10.73h70.43v55.03h-56.13c-16.88,0-28.71,2.57-35.49,7.7-6.79,5.14-10.18,12.47-10.18,22.01,0,8.8,3.48,16.05,10.46,21.74,6.96,5.69,16.51,8.53,28.61,8.53s22.29-2.84,31.64-8.53c9.35-5.68,16.04-14.39,20.08-26.14l14.31,38.52c-5.5,20.55-16.23,36.04-32.19,46.5-15.96,10.45-36.96,15.68-63.01,15.68Z"/>
      </g>
    </g>
  </g>
</svg>