<?xml version="1.0" encoding="UTF-8"?>
<svg id="Layer_2" data-name="Layer 2" xmlns="http://www.w3.org/2000/svg" xmlns:xlink="http://www.w3.org/1999/xlink" viewBox="0 0 1165.6 1199.47">
  <defs>
    <style>
      .cls-1 {
        fill: url(#linear-gradient-2);
      }

      .cls-2 {
        fill: #0569ff;
      }

      .cls-3 {
        fill: url(#linear-gradient);
      }
    </style>
    <linearGradient id="linear-gradient" x1="899.02" y1="713.21" x2="128.43" y2="268.31" gradientUnits="userSpaceOnUse">
      <stop offset=".12" stop-color="#3755fd"/>
      <stop offset=".23" stop-color="#355afc"/>
      <stop offset=".37" stop-color="#3068fa"/>
      <stop offset=".52" stop-color="#2881f7"/>
      <stop offset=".68" stop-color="#1da3f2"/>
      <stop offset=".85" stop-color="#0fcfed"/>
      <stop offset="1" stop-color="#00ffe7"/>
    </linearGradient>
    <linearGradient id="linear-gradient-2" x1="896.81" y1="449.34" x2="377.9" y2="149.75" gradientUnits="userSpaceOnUse">
      <stop offset=".21" stop-color="#3755fd"/>
      <stop offset=".33" stop-color="#345bfc"/>
      <stop offset=".49" stop-color="#2f6df9"/>
      <stop offset=".68" stop-color="#268af6"/>
      <stop offset=".79" stop-color="#19aff1"/>
      <stop offset="1" stop-color="#00ffe7"/>
    </linearGradient>
  </defs>
  <g id="Siora_2">
    <g>
      <path class="cls-3" d="M978.08,570.13l-59.85-59.69c-266.91,321.7-762.55,30.58-614.1-359.38-.83-4.26-54.47-57.77-60.73-62.08-3.14-2.16-3.68-5.2-9.32-3.67-97.29,199.97-40.72,444,142.68,571.3,172,119.39,398.8,107.03,556.29-30.76,9.17-8.02,50.35-45,45.03-55.73Z"/>
      <path class="cls-1" d="M416.52,201.31c118.18,29.36,124.17,196.29,6.83,233.31-17.91,5.65-35.19,2.17-50.79,9.72,73.06,122.25,212.08,183.73,349.87,143.35,194.71-57.06,279.32-295.43,160.72-459.95C738.62-72.74,440.04-28.7,353.94,200.1c21.47.55,41.23-4.09,62.59,1.22Z"/>
    </g>
    <g>
      <path class="cls-2" d="M133.17,1199.47c-26.18,0-51.24-3.24-75.16-9.71-23.93-6.47-43.27-14.67-58.01-24.6l29.34-66.36c14.14,9.03,30.47,16.48,48.98,22.35,18.51,5.87,36.94,8.8,55.3,8.8,12.64,0,22.64-1.05,30.02-3.16,7.37-2.1,12.79-5.11,16.25-9.03,3.46-3.91,5.19-8.58,5.19-14,0-6.92-3.32-12.41-9.93-16.48-6.62-4.06-15.28-7.52-25.96-10.38-10.69-2.86-22.28-5.57-34.76-8.13-12.49-2.55-25.21-5.94-38.15-10.16-12.94-4.21-24.68-9.78-35.21-16.7-10.54-6.92-19.04-15.95-25.51-27.09-6.47-11.13-9.71-25.13-9.71-41.98,0-18.66,5.11-35.66,15.35-51.01,10.23-15.35,25.73-27.69,46.5-37.02,20.77-9.32,46.65-13.99,77.65-13.99,20.77,0,41.15,2.34,61.17,7,20.01,4.67,37.69,11.67,53.04,20.99l-27.09,65.91c-15.05-8.42-29.95-14.59-44.69-18.51-14.75-3.91-29.05-5.87-42.89-5.87-12.34,0-22.28,1.35-29.8,4.06-7.53,2.71-12.94,6.17-16.25,10.38-3.31,4.22-4.97,8.73-4.97,13.54,0,7.22,3.31,12.87,9.93,16.93,6.62,4.06,15.19,7.38,25.73,9.93,10.53,2.56,22.19,5.19,34.99,7.9,12.79,2.71,25.51,6.09,38.15,10.16,12.64,4.06,24.3,9.48,34.99,16.25,10.68,6.77,19.33,15.65,25.96,26.63,6.62,10.99,9.93,24.76,9.93,41.31,0,18.36-5.19,35.29-15.57,50.79-10.38,15.5-25.96,27.92-46.72,37.24-20.77,9.32-46.8,13.99-78.1,13.99Z"/>
      <path class="cls-2" d="M353.02,921.39c-15.96,0-28.67-4.36-38.15-13.09-9.48-8.73-14.22-19.56-14.22-32.5s4.74-23.7,14.22-32.28c9.48-8.58,22.19-12.87,38.15-12.87s28.29,4.06,37.92,12.19c9.63,8.13,14.45,18.51,14.45,31.15,0,13.54-4.74,24.83-14.22,33.86-9.48,9.03-22.2,13.54-38.15,13.54ZM310.13,1193.15v-245.13h85.77v245.13h-85.77Z"/>
      <path class="cls-2" d="M574.22,1197.22c-26.79,0-50.56-5.42-71.33-16.25-20.77-10.83-37.1-25.8-48.98-44.92-11.89-19.11-17.83-40.86-17.83-65.23s5.94-46.57,17.83-65.68c11.89-19.11,28.21-34.08,48.98-44.92,20.77-10.83,44.54-16.25,71.33-16.25s50.63,5.42,71.55,16.25c20.91,10.83,37.31,25.81,49.21,44.92,11.89,19.12,17.83,41.01,17.83,65.68s-5.95,46.12-17.83,65.23c-11.89,19.12-28.29,34.08-49.21,44.92-20.92,10.83-44.77,16.25-71.55,16.25ZM574.22,1129.05c9.63,0,18.28-2.26,25.96-6.77,7.67-4.51,13.84-11.21,18.51-20.09,4.66-8.87,7-19.48,7-31.83s-2.33-23.17-7-31.6c-4.67-8.42-10.83-14.9-18.51-19.41-7.67-4.51-16.33-6.77-25.96-6.77s-18.28,2.26-25.96,6.77c-7.67,4.51-13.85,10.99-18.51,19.41-4.67,8.43-7,18.96-7,31.6s2.33,22.95,7,31.83c4.66,8.88,10.83,15.58,18.51,20.09,7.68,4.51,16.32,6.77,25.96,6.77Z"/>
      <path class="cls-2" d="M752.08,1193.15v-245.13h82.16v71.78l-12.64-20.32c7.52-18.35,19.33-32.2,35.44-41.53,16.1-9.33,35.73-14,58.91-14v77.65c-3.91-.6-7.38-.97-10.38-1.13-3.01-.15-6.02-.23-9.03-.23-17.46,0-31.6,4.74-42.44,14.22-10.83,9.48-16.25,24.91-16.25,46.27v112.41h-85.77Z"/>
      <path class="cls-2" d="M1085.7,1193.15v-45.59l-5.87-11.29v-83.97c0-13.54-4.14-24-12.41-31.37-8.28-7.37-21.44-11.06-39.5-11.06-11.74,0-23.7,1.96-35.89,5.87-12.19,3.91-22.5,8.88-30.92,14.9l-28.44-57.78c13.84-9.03,30.47-16.1,49.88-21.22,19.41-5.11,38.75-7.68,58.01-7.68,39.73,0,70.5,9.18,92.32,27.54,21.82,18.36,32.73,46.95,32.73,85.77v135.88h-79.91ZM1013.47,1197.22c-19.26,0-35.74-3.31-49.43-9.93-13.7-6.62-24.08-15.64-31.15-27.09-7.08-11.43-10.61-24.07-10.61-37.92,0-15.05,3.84-28.14,11.51-39.28,7.68-11.13,19.56-19.64,35.66-25.51,16.1-5.87,36.64-8.8,61.62-8.8h57.78v45.14h-46.05c-13.85,0-23.55,2.11-29.12,6.32-5.57,4.22-8.35,10.23-8.35,18.06,0,7.22,2.86,13.17,8.58,17.83,5.71,4.67,13.54,7,23.47,7s18.28-2.33,25.96-7c7.67-4.66,13.16-11.81,16.48-21.44l11.74,31.6c-4.51,16.86-13.32,29.57-26.41,38.15-13.09,8.58-30.32,12.87-51.69,12.87Z"/>
    </g>
  </g>
</svg>