<?xml version="1.0" encoding="UTF-8"?>
<svg id="Layer_2" data-name="Layer 2" xmlns="http://www.w3.org/2000/svg" viewBox="0 0 71.9 20.1">
  <defs>
    <style>
      .cls-1 {
        fill: #034ea2;
      }
    </style>
  </defs>
  <g id="Layer_1-2" data-name="Layer 1">
    <g>
      <path class="cls-1" d="M47.6.4h5.8c2.4,0,4.1.9,5.1,2.9.8,1.6.8,5.4.8,6.1,0,4.1-.4,6.5-1.2,7.7-1,1.7-2.9,2.5-6.2,2.5h-4.3V.4h0ZM50,17.4h2.3c3.4,0,4.6-1.3,4.6-5.7v-3.9c0-3.9-1.2-5.3-3.7-5.3h-3.2v14.9h0Z"/>
      <path class="cls-1" d="M36.7,13.9v.6c0,2.6,1.6,3.4,3.2,3.4,1.9,0,3.4-.8,3.4-3.1,0-4.2-8.5-3.8-8.5-9.5,0-3.4,2.4-5.2,5.6-5.2,3.5,0,5.4,1.7,5.2,5.6h-2.5c0-2.1-.6-3.5-2.9-3.5-1.4,0-2.9.7-2.9,2.8,0,4.2,8.5,3.6,8.5,9.7,0,4-2.8,5.3-5.9,5.3-5.6.1-5.6-4.3-5.5-6.1,0,0,2.3,0,2.3,0Z"/>
      <g>
        <polygon class="cls-1" points="12.5 0 12.5 10.3 15 10.3 15 6.1 17.2 6.1 17.2 4 15 4 15 0 12.5 0"/>
        <path class="cls-1" d="M3.1,19.5v-8.4h11.9v8.4H3.1ZM12.6,17.5v-4.3h-7v4.3s7,0,7,0Z"/>
        <polygon class="cls-1" points="32.2 0 32.2 10.3 29.7 10.3 29.7 6.1 26.5 6.1 26.5 4 29.6 4 29.6 0 32.2 0"/>
        <path class="cls-1" d="M25.9,20.1c-3.6,0-6.6-2.1-6.6-4.8s2.9-4.8,6.6-4.8,6.6,2.1,6.6,4.8-2.9,4.8-6.6,4.8ZM30,15.3c0-1.5-1.8-2.7-4.1-2.7s-4.1,1.2-4.1,2.7,1.8,2.7,4.1,2.7,4.1-1.2,4.1-2.7Z"/>
        <path class="cls-1" d="M6.5.4s-.3,5.6,4.2,7.9l-1.3,1.8s-3.3-2.2-4.1-4.6c-.7,2.4-4,4.6-4,4.6l-1.3-1.8C4.5,6,4.2.4,4.2.4c0,0,2.3,0,2.3,0Z"/>
        <path class="cls-1" d="M22.2,5.5c-.7,2.4-3.8,4.4-3.8,4.4l-1.3-1.8c4.2-2.1,3.9-7.7,3.9-7.7h2.3s-.3,5.6,3.9,7.7l-1.3,1.8c.1-.1-3-2.1-3.7-4.4Z"/>
      </g>
      <path class="cls-1" d="M62.8,13.9v.6c0,2.6,1.6,3.4,3.2,3.4,1.9,0,3.4-.8,3.4-3.1,0-4.2-8.5-3.8-8.5-9.5,0-3.4,2.4-5.2,5.6-5.2,3.5,0,5.4,1.7,5.2,5.6h-2.5c0-2.1-.6-3.5-2.9-3.5-1.4,0-2.9.7-2.9,2.8,0,4.2,8.5,3.6,8.5,9.7,0,4-2.7,5.3-5.9,5.3-5.6.1-5.6-4.3-5.5-6.1,0,0,2.3,0,2.3,0Z"/>
    </g>
  </g>
</svg>