<?xml version="1.0" encoding="UTF-8"?>
<svg id="Layer_2" data-name="Layer 2" xmlns="http://www.w3.org/2000/svg" viewBox="0 0 2290.9 373.34">
  <defs>
    <style>
      .cls-1 {
        fill: #30a8e1;
      }

      .cls-2 {
        fill: #1d2088;
      }
    </style>
  </defs>
  <g id="Layer_1-2" data-name="Layer 1">
    <g>
      <path class="cls-2" d="M600.7,107.1L627.73,0h-137.62l-21.85,99.93c47.35,2.06,93.27,4.68,132.44,7.17Z"/>
      <path class="cls-2" d="M315.52,96.11c26.34,0,54.3.48,82.72,1.28L373.34,0h-116.34l-24.4,97.43c28.63-.82,56.7-1.32,82.92-1.32Z"/>
      <path class="cls-1" d="M465.39,113.03l-29.11,133.11-34.63-135.43c-29.6-.86-58.75-1.38-86.13-1.38s-56.47.54-86.26,1.42l-33.91,135.39-29.57-133.06c-48.33,2.1-95.48,4.78-135.54,7.33l63.53,252.93h184.5l36.03-157.15,35.6,157.15h183.62l63.9-253.22c-39.2-2.47-84.95-5.07-132.03-7.09Z"/>
      <path class="cls-2" d="M162.87,99.99L140.65,0H0l26.97,107.37c39.99-2.55,87.32-5.26,135.9-7.38Z"/>
      <path class="cls-2" d="M947.47,239.99l25.94-210.4h70.14l-40.33,315.23h-91.17l-25.59-158.49-23.85,158.49h-91.16l-40.32-315.23h70.12l23.85,210.4,28.75-210.4h63.47l30.15,210.4Z"/>
      <path class="cls-2" d="M1125.28,179.32h45.23v-19.29c0-12.27-10.17-18.93-22.44-18.93s-22.79,6.66-22.79,18.93v19.29ZM1242.39,258.22v25.94c0,47.69-45.94,67.67-92.93,67.67s-94.31-19.98-94.31-67.67v-134.99c0-47.69,45.59-67.67,92.92-67.67s92.91,19.98,92.91,67.67v86.25h-115.7v36.81c0,12.28,10.52,18.24,22.79,18.24s22.44-5.96,22.44-18.24v-14.01h71.88Z"/>
      <path class="cls-2" d="M1482.94,218.24h-217.39v-63.11h217.39v63.11Z"/>
      <path class="cls-2" d="M1581.15,268.03l21.38,4.2c17.89,3.86,28.06,2.11,28.06-15.07v-31.2c0-15.09-13.32-17.54-24.55-17.54h-24.89v59.61ZM1606.04,92.71h-24.89v56.11h24.89c15.09-.35,21.04-7.37,21.04-24.55v-7.02c0-15.07-4.21-24.54-21.04-24.54ZM1581.15,330.79v14.03h-73.63V29.59h121.31c45.94,0,69.08,8.43,70.14,56.11v43.13c0,22.79-20.69,44.88-47.34,45.94,27.35,1.74,50.84,25.24,50.84,49.78v64.16c0,43.49-17.18,63.83-70.13,52.6l-51.19-10.52Z"/>
      <path class="cls-2" d="M1723.54,29.59h73.63v315.23h-73.63V29.59Z"/>
      <path class="cls-2" d="M1825.24,106.39h73.63v238.43h-73.63V106.39ZM1825.24,29.59h73.63v58.91h-73.63V29.59Z"/>
      <path class="cls-2" d="M1988.98,158.29c0,12.27,9.82,17.52,39.63,26.99,71.18,20.69,71.52,38.58,71.52,78.19v29.46c0,43.48-46.28,58.9-89.41,58.9s-94.32-15.42-94.32-58.9v-41.73h71.53v23.85c0,11.21,9.82,17.17,21.04,17.17s19.29-5.96,19.29-17.17v-11.58c0-16.83-10.53-20.34-61.01-38.92-44.19-15.78-48.39-40.32-48.39-66.26v-17.89c0-43.12,45.92-58.9,89.41-58.9s89.41,15.78,89.41,58.9v30.86h-70.13v-13.33c0-10.87-8.07-16.83-19.28-16.83s-19.29,4.56-19.29,15.43v1.76Z"/>
      <path class="cls-2" d="M2179.74,158.29c0,12.27,9.82,17.52,39.63,26.99,71.18,20.69,71.53,38.58,71.53,78.19v29.46c0,43.48-46.29,58.9-89.41,58.9s-94.32-15.42-94.32-58.9v-41.73h71.53v23.85c0,11.21,9.82,17.17,21.03,17.17s19.29-5.96,19.29-17.17v-11.58c0-16.83-10.53-20.34-61.01-38.92-44.18-15.78-48.39-40.32-48.39-66.26v-17.89c0-43.12,45.93-58.9,89.41-58.9s89.42,15.78,89.42,58.9v30.86h-70.14v-13.33c0-10.87-8.06-16.83-19.28-16.83s-19.29,4.56-19.29,15.43v1.76Z"/>
    </g>
  </g>
</svg>