<svg width="4000" height="4000" viewBox="0 0 4000 4000" fill="none" xmlns="http://www.w3.org/2000/svg">
<g clip-path="url(#clip0_10_170)">
<mask id="mask0_10_170" style="mask-type:luminance" maskUnits="userSpaceOnUse" x="0" y="0" width="4000" height="4000">
<path d="M0 0H4000V4000H0V0Z" fill="white"/>
</mask>
<g mask="url(#mask0_10_170)">
<path d="M2452.13 1615.47L2494.73 1446.67H2277.81L2243.36 1604.18C2318 1607.42 2390.38 1611.55 2452.13 1615.47Z" fill="#1D2088"/>
</g>
<mask id="mask1_10_170" style="mask-type:luminance" maskUnits="userSpaceOnUse" x="0" y="0" width="4000" height="4001">
<path d="M0 0.000244141H4000V4000H0V0.000244141Z" fill="white"/>
</mask>
<g mask="url(#mask1_10_170)">
<path d="M2002.61 1598.16C2044.12 1598.16 2088.2 1598.91 2133 1600.18L2093.74 1446.67H1910.36L1871.9 1600.24C1917.03 1598.94 1961.27 1598.16 2002.61 1598.16Z" fill="#1D2088"/>
</g>
<mask id="mask2_10_170" style="mask-type:luminance" maskUnits="userSpaceOnUse" x="0" y="0" width="4000" height="4000">
<path d="M0 0H4000V4000H0V0Z" fill="white"/>
</mask>
<g mask="url(#mask2_10_170)">
<path d="M2238.84 1624.82L2192.96 1834.64L2138.37 1621.17C2091.72 1619.81 2045.76 1618.99 2002.61 1618.99C1959.68 1618.99 1913.6 1619.84 1866.64 1621.23L1813.19 1834.64L1766.58 1624.91C1690.4 1628.21 1616.08 1632.44 1552.94 1636.45L1653.08 2035.13H1943.89L2000.68 1787.43L2056.79 2035.13H2346.22L2446.94 1636.01C2385.16 1632.1 2313.05 1628.02 2238.84 1624.82Z" fill="#30A8E1"/>
</g>
<mask id="mask3_10_170" style="mask-type:luminance" maskUnits="userSpaceOnUse" x="0" y="0" width="4000" height="4000">
<path d="M0 0H4000V4000H0V0Z" fill="white"/>
</mask>
<g mask="url(#mask3_10_170)">
<path d="M1762 1604.27L1726.97 1446.67H1505.27L1547.78 1615.91C1610.82 1611.89 1685.42 1607.62 1762 1604.27Z" fill="#1D2088"/>
</g>
<mask id="mask4_10_170" style="mask-type:luminance" maskUnits="userSpaceOnUse" x="0" y="0" width="4000" height="4000">
<path d="M0 0H4000V4000H0V0Z" fill="white"/>
</mask>
<g mask="url(#mask4_10_170)">
<path d="M1487.38 2180.18H1577.77V2553.33H1487.38V2180.18ZM1362.07 2300.27C1373.72 2300.27 1382.96 2288.22 1382.96 2274.96C1382.96 2260.51 1373.72 2248.86 1362.07 2248.86H1318.69C1307.44 2248.86 1298.61 2260.9 1298.61 2274.96C1298.61 2288.22 1307.44 2300.27 1318.69 2300.27H1362.07ZM1220.68 2274.56C1220.68 2224.36 1255.62 2184.2 1304.23 2184.2H1376.53C1425.14 2184.2 1460.08 2224.36 1460.08 2274.56C1460.08 2324.78 1425.14 2364.94 1376.53 2364.94H1304.23C1255.62 2364.94 1220.68 2324.78 1220.68 2274.56ZM1212.65 2381.01H1477.35V2445.27H1382.56L1356.04 2553.33H1267.27L1293.79 2445.27H1212.65V2381.01Z" fill="#1D2088"/>
</g>
<mask id="mask5_10_170" style="mask-type:luminance" maskUnits="userSpaceOnUse" x="0" y="0" width="4000" height="4000">
<path d="M0 0H4000V4000H0V0Z" fill="white"/>
</mask>
<g mask="url(#mask5_10_170)">
<path d="M1715.98 2260.51H1881.47V2244.44H1715.98V2260.51ZM1628.43 2397.08H1969.84V2493.88H1716.4V2508.33H1975.87V2553.33H1628.43V2453.71H1881.87V2439.66H1628.43V2397.08ZM1628.43 2177.77H1715.98V2197.44H1881.47V2177.77H1969.84V2307.5H1628.43V2177.77ZM1614.37 2322.37H1983.9V2380.2H1614.37V2322.37Z" fill="#1D2088"/>
</g>
<mask id="mask6_10_170" style="mask-type:luminance" maskUnits="userSpaceOnUse" x="0" y="0" width="4000" height="4000">
<path d="M0 0H4000V4000H0V0Z" fill="white"/>
</mask>
<g mask="url(#mask6_10_170)">
<path d="M2290.83 2180.18H2381.21V2553.33H2290.83V2180.18ZM2024.12 2192.23H2251.07V2391.85H2112.49V2461.74L2281.19 2448.5V2520.8L2024.12 2541.27V2323.57H2163.91V2262.52H2024.12V2192.23Z" fill="#1D2088"/>
</g>
<mask id="mask7_10_170" style="mask-type:luminance" maskUnits="userSpaceOnUse" x="0" y="0" width="4000" height="4000">
<path d="M0 -0.00012207H4000V4000H0V-0.00012207Z" fill="white"/>
</mask>
<g mask="url(#mask7_10_170)">
<path d="M2427.85 2328.39C2512.2 2321.97 2557.6 2261.72 2557.6 2216.72V2182.19H2647.96V2216.72C2647.96 2261.72 2693.36 2321.97 2777.71 2328.39V2400.29C2692.96 2398.28 2635.92 2362.14 2602.58 2316.74C2569.25 2362.14 2512.2 2398.28 2427.85 2400.29V2328.39ZM2417.81 2472.99H2787.35V2547.3H2417.81V2472.99Z" fill="#1D2088"/>
</g>
</g>
<defs>
<clipPath id="clip0_10_170">
<rect width="4000" height="4000" fill="white"/>
</clipPath>
</defs>
</svg>
