<svg width="4000" height="4000" viewBox="0 0 4000 4000" fill="none" xmlns="http://www.w3.org/2000/svg">
<rect width="4000" height="4000" fill="white"/>
<path d="M1455.25 1920.43L1482.28 1813.33H1344.66L1322.81 1913.26C1370.16 1915.32 1416.08 1917.94 1455.25 1920.43Z" fill="#1D2088"/>
<path d="M1170.07 1909.44C1196.41 1909.44 1224.37 1909.92 1252.79 1910.72L1227.89 1813.33H1111.55L1087.15 1910.76C1115.78 1909.94 1143.85 1909.44 1170.07 1909.44Z" fill="#1D2088"/>
<path d="M1319.94 1926.36L1290.83 2059.47L1256.2 1924.04C1226.6 1923.18 1197.45 1922.66 1170.07 1922.66C1142.84 1922.66 1113.6 1923.2 1083.81 1924.08L1049.9 2059.47L1020.33 1926.41C972.004 1928.51 924.848 1931.19 884.793 1933.74L948.321 2186.67H1132.82L1168.85 2029.52L1204.45 2186.67H1388.07L1451.97 1933.45C1412.77 1930.98 1367.02 1928.38 1319.94 1926.36Z" fill="#30A8E1"/>
<path d="M1017.42 1913.32L995.201 1813.33H854.551L881.519 1920.7C921.511 1918.15 968.841 1915.44 1017.42 1913.32Z" fill="#1D2088"/>
<path d="M1802.02 2053.32L1827.96 1842.92H1898.1L1857.77 2158.15H1766.6L1741.01 1999.66L1717.16 2158.15H1626L1585.68 1842.92H1655.8L1679.65 2053.32L1708.4 1842.92H1771.87L1802.02 2053.32Z" fill="#1D2088"/>
<path d="M1979.83 1992.65H2025.06V1973.36C2025.06 1961.09 2014.89 1954.43 2002.62 1954.43C1990.35 1954.43 1979.83 1961.09 1979.83 1973.36V1992.65ZM2096.94 2071.55V2097.49C2096.94 2145.18 2051 2165.16 2004.01 2165.16C1956.68 2165.16 1909.7 2145.18 1909.7 2097.49V1962.5C1909.7 1914.81 1955.29 1894.83 2002.62 1894.83C2049.61 1894.83 2095.53 1914.81 2095.53 1962.5V2048.75H1979.83V2085.56C1979.83 2097.84 1990.35 2103.8 2002.62 2103.8C2014.89 2103.8 2025.06 2097.84 2025.06 2085.56V2071.55H2096.94Z" fill="#1D2088"/>
<path d="M2337.49 2031.57H2120.1V1968.46H2337.49V2031.57Z" fill="#1D2088"/>
<path d="M2435.7 2081.36L2457.08 2085.56C2474.97 2089.42 2485.14 2087.67 2485.14 2070.49V2039.29C2485.14 2024.2 2471.82 2021.75 2460.59 2021.75H2435.7V2081.36ZM2460.59 1906.04H2435.7V1962.15H2460.59C2475.68 1961.8 2481.63 1954.78 2481.63 1937.6V1930.58C2481.63 1915.51 2477.42 1906.04 2460.59 1906.04ZM2435.7 2144.12V2158.15H2362.07V1842.92H2483.38C2529.32 1842.92 2552.46 1851.35 2553.52 1899.03V1942.16C2553.52 1964.95 2532.83 1987.04 2506.18 1988.1C2533.53 1989.84 2557.02 2013.34 2557.02 2037.88V2102.04C2557.02 2145.53 2539.84 2165.87 2486.89 2154.64L2435.7 2144.12Z" fill="#1D2088"/>
<path d="M2578.09 1842.92H2651.72V2158.15H2578.09V1842.92Z" fill="#1D2088"/>
<path d="M2679.79 1919.72H2753.42V2158.15H2679.79V1919.72ZM2679.79 1842.92H2753.42V1901.83H2679.79V1842.92Z" fill="#1D2088"/>
<path d="M2843.53 1971.62C2843.53 1983.89 2853.35 1989.14 2883.16 1998.61C2954.34 2019.3 2954.68 2037.19 2954.68 2076.8V2106.26C2954.68 2149.74 2908.4 2165.16 2865.27 2165.16C2821.8 2165.16 2770.95 2149.74 2770.95 2106.26V2064.53H2842.48V2088.38C2842.48 2099.59 2852.3 2105.55 2863.52 2105.55C2874.38 2105.55 2882.81 2099.59 2882.81 2088.38V2076.8C2882.81 2059.97 2872.28 2056.46 2821.8 2037.88C2777.61 2022.1 2773.41 1997.56 2773.41 1971.62V1953.73C2773.41 1910.61 2819.33 1894.83 2862.82 1894.83C2906.29 1894.83 2952.23 1910.61 2952.23 1953.73V1984.59H2882.1V1971.26C2882.1 1960.39 2874.03 1954.43 2862.82 1954.43C2851.59 1954.43 2843.53 1958.99 2843.53 1969.86V1971.62Z" fill="#1D2088"/>
<path d="M3034.29 1971.62C3034.29 1983.89 3044.11 1989.14 3073.92 1998.61C3145.1 2019.3 3145.45 2037.19 3145.45 2076.8V2106.26C3145.45 2149.74 3099.16 2165.16 3056.04 2165.16C3012.56 2165.16 2961.72 2149.74 2961.72 2106.26V2064.53H3033.25V2088.38C3033.25 2099.59 3043.07 2105.55 3054.28 2105.55C3065.15 2105.55 3073.57 2099.59 3073.57 2088.38V2076.8C3073.57 2059.97 3063.04 2056.46 3012.56 2037.88C2968.38 2022.1 2964.17 1997.56 2964.17 1971.62V1953.73C2964.17 1910.61 3010.1 1894.83 3053.58 1894.83C3097.06 1894.83 3143 1910.61 3143 1953.73V1984.59H3072.86V1971.26C3072.86 1960.39 3064.8 1954.43 3053.58 1954.43C3042.36 1954.43 3034.29 1958.99 3034.29 1969.86V1971.62Z" fill="#1D2088"/>
</svg>
