<?xml version="1.0" encoding="UTF-8"?>
<svg id="_레이어_1" data-name="레이어_1" xmlns="http://www.w3.org/2000/svg" version="1.1" xmlns:xlink="http://www.w3.org/1999/xlink" viewBox="0 0 1448 1552">
  <!-- Generator: Adobe Illustrator 29.8.0, SVG Export Plug-In . SVG Version: 2.1.1 Build 160)  -->
  <defs>
    <style>
      .st0 {
        fill: url(#_무제_그라디언트);
      }

      .st1 {
        display: none;
        fill: #fff;
      }

      .st2 {
        fill: #00ff26;
      }
    </style>
    <linearGradient id="_무제_그라디언트" data-name="무제 그라디언트" x1="985.15" y1="824.66" x2="401" y2="824.66" gradientTransform="translate(0 1552) scale(1 -1)" gradientUnits="userSpaceOnUse">
      <stop offset="0" stop-color="#4089f5"/>
      <stop offset="1" stop-color="#232977"/>
    </linearGradient>
  </defs>
  <rect class="st1" width="1448" height="1552"/>
  <path class="st0" d="M943.42,539.58c23.04,0,41.72,18.68,41.72,41.73,0,5.38-1.02,10.53-2.88,15.25l.1.05-.57,1.11c-.77,1.81-1.67,3.56-2.69,5.23l-147.75,287.36c-6.49,14.61-21.13,24.81-38.15,24.81-22.58,0-40.96-17.93-41.7-40.33h-.03s-10.25-106.59-10.25-106.59c-1.07-11.08-15.95-13.9-20.99-3.98l-64.09,126c-6.47,14.66-21.13,24.9-38.19,24.9-22.58,0-40.96-17.93-41.7-40.33h-.03v-104.09c0-11.31-14.92-15.41-20.7-5.68l-76.66,129.23h-.02c-7.21,12.47-20.7,20.86-36.14,20.86-23.04,0-41.73-18.68-41.73-41.72,0-8.79,2.72-16.94,7.36-23.67l165.1-289.27h.02c7.21-12.47,20.7-20.86,36.15-20.86,23.04,0,41.72,18.68,41.73,41.73,0,1.39-.07,2.76-.2,4.11l.2.07v95.23c0,11.54,15.4,15.45,20.91,5.3l68.11-125.57h.02c7.21-12.47,20.7-20.86,36.14-20.86,22.1,0,40.19,17.18,41.63,38.92l.1.02v102.18c0,11.54,15.4,15.45,20.91,5.3l68.11-125.57h.01c7.21-12.47,20.7-20.86,36.15-20.86Z"/>
  <path class="st2" d="M1011.38,444.62c-11.88-11.88-11.88-35.62-21.38-35.62s-9.5,23.75-21.38,35.62-35.62,11.88-35.62,21.38,23.75,9.5,35.62,21.38,11.88,35.62,21.38,35.62,9.5-23.75,21.38-35.62c11.87-11.88,35.62-11.88,35.62-21.38s-23.75-9.5-35.62-21.38Z"/>
  <path d="M523.44,1109.01c-2.12,0-3.91-.68-5.35-2.03-1.35-1.45-2.03-3.23-2.03-5.35v-41.37c0-6.08-1.49-10.56-4.48-13.45-2.99-2.99-6.89-4.49-11.72-4.49s-9.16,1.74-12.44,5.21c-3.18,3.47-4.77,7.91-4.77,13.31h-12.01c0-6.27,1.35-11.77,4.05-16.49,2.7-4.82,6.46-8.58,11.28-11.28,4.92-2.7,10.51-4.05,16.78-4.05,5.5,0,10.37,1.2,14.61,3.61s7.52,5.98,9.84,10.71c2.41,4.62,3.62,10.27,3.62,16.92v41.37c0,2.12-.68,3.9-2.03,5.35-1.35,1.35-3.13,2.03-5.35,2.03ZM426.96,1109.01c-2.12,0-3.9-.68-5.35-2.03-1.35-1.45-2.02-3.23-2.02-5.35v-64.37c0-2.22.68-4,2.02-5.35,1.45-1.35,3.23-2.03,5.35-2.03s4,.68,5.35,2.03,2.02,3.13,2.02,5.35v64.37c0,2.12-.67,3.9-2.02,5.35-1.35,1.35-3.13,2.03-5.35,2.03ZM475.27,1109.01c-2.12,0-3.9-.68-5.35-2.03-1.35-1.45-2.02-3.23-2.02-5.35v-41.37c0-6.08-1.49-10.56-4.48-13.45-2.99-2.99-6.89-4.49-11.72-4.49s-9.16,1.74-12.44,5.21c-3.28,3.47-4.92,7.91-4.92,13.31h-9.11c0-6.27,1.25-11.77,3.76-16.49,2.51-4.82,5.98-8.58,10.42-11.28,4.44-2.7,9.5-4.05,15.19-4.05s10.37,1.2,14.61,3.61c4.24,2.41,7.52,5.98,9.84,10.71,2.41,4.62,3.62,10.27,3.62,16.92v41.37c0,2.12-.68,3.9-2.02,5.35-1.35,1.35-3.13,2.03-5.35,2.03ZM564.15,1108.86c-2.12,0-3.9-.67-5.35-2.02-1.35-1.45-2.02-3.24-2.02-5.36v-64.36c0-2.22.67-4.01,2.02-5.36,1.45-1.35,3.23-2.02,5.35-2.02s4,.67,5.35,2.02c1.35,1.35,2.02,3.14,2.02,5.36v64.36c0,2.12-.67,3.91-2.02,5.36-1.35,1.35-3.13,2.02-5.35,2.02ZM564.15,1016.87c-2.6,0-4.87-.92-6.8-2.75-1.83-1.93-2.75-4.2-2.75-6.8s.92-4.82,2.75-6.65c1.93-1.93,4.19-2.9,6.8-2.9s4.82.96,6.65,2.9c1.93,1.83,2.89,4.05,2.89,6.65s-.96,4.87-2.89,6.8c-1.83,1.83-4.05,2.75-6.65,2.75ZM617.78,1108.86c-4.24,0-8-1.16-11.28-3.47-3.28-2.32-5.83-5.45-7.67-9.4-1.83-4.05-2.75-8.68-2.75-13.89v-78.98c0-2.12.67-3.85,2.03-5.2s3.09-2.02,5.21-2.02,3.86.67,5.21,2.02c1.35,1.35,2.02,3.08,2.02,5.2v78.98c0,3.57.68,6.51,2.03,8.82,1.35,2.32,3.09,3.48,5.21,3.48h3.62c1.93,0,3.47.67,4.63,2.02,1.25,1.35,1.88,3.09,1.88,5.21s-.92,3.86-2.75,5.21c-1.83,1.35-4.2,2.02-7.09,2.02h-.29ZM656.23,1079.93l-8.97-9.83,44.41-39.64c1.45-1.35,3.04-1.97,4.77-1.88,1.83.1,3.38.87,4.63,2.32,1.35,1.44,1.98,3.03,1.88,4.77-.1,1.74-.87,3.28-2.31,4.63l-44.41,39.63ZM649.43,1108.86c-2.12,0-3.86-.63-5.21-1.88-1.25-1.35-1.88-3.09-1.88-5.21v-98.79c0-2.12.63-3.81,1.88-5.06,1.35-1.35,3.09-2.02,5.21-2.02s3.81.67,5.06,2.02c1.35,1.25,2.03,2.94,2.03,5.06v98.79c0,2.12-.67,3.86-2.03,5.21-1.25,1.25-2.94,1.88-5.06,1.88ZM701.07,1108.14c-1.54,1.25-3.28,1.78-5.21,1.59-1.83-.1-3.38-.92-4.63-2.46l-29.36-36.31,10.12-9.54,30.09,37.03c1.25,1.54,1.78,3.23,1.59,5.06-.1,1.73-.96,3.28-2.6,4.63ZM738.87,1143.58c-.96,0-2.12-.29-3.47-.87-4.24-1.93-5.4-4.97-3.47-9.12l44.12-99.66c1.93-4.05,4.97-5.2,9.11-3.47,4.34,1.83,5.55,4.87,3.62,9.11l-44.26,99.52c-1.16,2.99-3.04,4.49-5.64,4.49ZM755.94,1105.68c-1.83.77-3.57.87-5.21.29-1.54-.68-2.8-1.93-3.76-3.76l-33.12-62.92c-.96-1.84-1.11-3.57-.43-5.21.77-1.74,2.07-2.99,3.91-3.76,1.83-.77,3.57-.82,5.21-.15,1.64.58,2.89,1.79,3.76,3.62l31.68,62.92c.96,1.83,1.3,3.62,1.01,5.35-.19,1.64-1.21,2.85-3.04,3.62ZM820.89,1108.86c-1.54,0-2.99-.43-4.34-1.3-1.25-.97-2.12-2.12-2.6-3.47l-21.41-64.23c-.77-2.99-.77-5.4,0-7.23.87-1.93,2.7-2.89,5.5-2.89,1.83,0,3.33.53,4.48,1.59,1.25.96,2.27,2.65,3.04,5.06l18.23,56.99h-5.06l17.21-58.14c.48-1.64,1.3-2.95,2.46-3.91,1.16-1.06,2.75-1.59,4.77-1.59s3.47.53,4.63,1.59c1.25.96,2.07,2.27,2.46,3.91l14.03,54.67h-2.17l17.07-53.52c1.35-4.43,3.86-6.65,7.52-6.65,2.7,0,4.53.96,5.5,2.89.96,1.83.92,4.24-.14,7.23l-21.41,64.23c-.39,1.35-1.21,2.5-2.46,3.47-1.25.87-2.7,1.3-4.34,1.3-1.54,0-2.99-.43-4.34-1.3-1.35-.97-2.22-2.12-2.6-3.47l-14.9-55.11h1.45l-15.62,55.11c-.39,1.35-1.25,2.5-2.6,3.47-1.25.87-2.7,1.3-4.34,1.3ZM938.06,1109.44c-7.04,0-13.36-1.74-18.95-5.21-5.59-3.57-10.03-8.34-13.31-14.32-3.18-6.07-4.77-12.92-4.77-20.54s1.73-14.46,5.21-20.54c3.57-6.07,8.34-10.85,14.32-14.32,6.07-3.57,12.87-5.35,20.39-5.35s14.27,1.78,20.25,5.35c5.98,3.47,10.7,8.25,14.17,14.32,3.57,6.08,5.35,12.92,5.35,20.54h-5.64c0,7.62-1.64,14.47-4.92,20.54-3.18,5.98-7.57,10.75-13.16,14.32-5.59,3.47-11.91,5.21-18.95,5.21ZM940.95,1096.42c4.92,0,9.31-1.16,13.16-3.47,3.86-2.41,6.89-5.64,9.11-9.69,2.22-4.15,3.33-8.78,3.33-13.89s-1.11-9.83-3.33-13.88c-2.22-4.15-5.26-7.38-9.11-9.7-3.86-2.41-8.24-3.61-13.16-3.61s-9.21,1.2-13.16,3.61c-3.86,2.32-6.94,5.55-9.26,9.7-2.22,4.05-3.33,8.67-3.33,13.88s1.11,9.74,3.33,13.89c2.31,4.05,5.4,7.28,9.26,9.69,3.95,2.31,8.34,3.47,13.16,3.47ZM973.35,1109.01c-2.12,0-3.91-.68-5.35-2.03-1.35-1.45-2.03-3.23-2.03-5.35v-22.13l2.75-15.34,12.01,5.21v32.26c0,2.12-.72,3.9-2.17,5.35-1.35,1.35-3.09,2.03-5.21,2.03ZM1011.51,1108.86c-2.12,0-3.91-.67-5.35-2.02-1.35-1.45-2.03-3.24-2.03-5.36v-64.36c0-2.22.68-4.01,2.03-5.36,1.44-1.35,3.23-2.02,5.35-2.02s4,.67,5.35,2.02c1.35,1.35,2.03,3.14,2.03,5.36v64.36c0,2.12-.68,3.91-2.03,5.36-1.35,1.35-3.13,2.02-5.35,2.02ZM1011.51,1016.87c-2.6,0-4.87-.92-6.8-2.75-1.83-1.93-2.75-4.2-2.75-6.8s.92-4.82,2.75-6.65c1.93-1.93,4.2-2.9,6.8-2.9s4.82.96,6.65,2.9c1.93,1.83,2.9,4.05,2.9,6.65s-.97,4.87-2.9,6.8c-1.83,1.83-4.05,2.75-6.65,2.75Z"/>
</svg>