<?xml version="1.0" encoding="UTF-8"?>
<svg id="_레이어_1" data-name="레이어_1" xmlns="http://www.w3.org/2000/svg" version="1.1" xmlns:xlink="http://www.w3.org/1999/xlink" viewBox="0 0 1448 1552">
  <!-- Generator: Adobe Illustrator 29.8.0, SVG Export Plug-In . SVG Version: 2.1.1 Build 160)  -->
  <defs>
    <style>
      .st0 {
        fill: url(#_무제_그라디언트);
      }

      .st1 {
        fill: #00ff26;
      }
    </style>
    <linearGradient id="_무제_그라디언트" data-name="무제 그라디언트" x1="398.64" y1="746.12" x2="0" y2="746.12" gradientTransform="translate(0 1552) scale(1 -1)" gradientUnits="userSpaceOnUse">
      <stop offset="0" stop-color="#4089f5"/>
      <stop offset="1" stop-color="#232977"/>
    </linearGradient>
  </defs>
  <path class="st0" d="M370.17,677.74c15.73,0,28.47,12.75,28.47,28.47,0,3.67-.7,7.18-1.96,10.41l.06.03-.39.75c-.53,1.23-1.14,2.42-1.83,3.56l-100.83,196.12c-4.43,9.97-14.42,16.92-26.03,16.92-15.41,0-27.96-12.24-28.46-27.52h-.02s-7-72.74-7-72.74c-.73-7.56-10.88-9.49-14.32-2.71l-43.74,85.99c-4.42,10-14.42,16.98-26.06,16.98-15.41,0-27.96-12.24-28.46-27.52h-.02v-71.03c0-7.72-10.18-10.51-14.12-3.87l-52.32,88.19h-.01c-4.92,8.51-14.13,14.24-24.67,14.24-15.73,0-28.47-12.75-28.47-28.47,0-6,1.86-11.57,5.02-16.16l112.67-197.4h.01c4.92-8.51,14.13-14.24,24.67-14.24,15.73,0,28.47,12.75,28.47,28.47,0,.95-.05,1.88-.14,2.8l.14.04v64.99c0,7.88,10.51,10.55,14.27,3.62l46.48-85.69h.01c4.92-8.51,14.13-14.24,24.67-14.24,15.08,0,27.42,11.73,28.41,26.56l.07.02v69.73c0,7.88,10.51,10.55,14.27,3.62l46.48-85.69h0c4.92-8.51,14.13-14.24,24.67-14.24Z"/>
  <path class="st1" d="M434.71,641.67c0,15.73-12.75,28.47-28.47,28.47s-28.47-12.75-28.47-28.47,12.75-28.47,28.47-28.47,28.47,12.75,28.47,28.47Z"/>
  <path d="M664.33,881.09c-3.34,0-6.15-1.06-8.43-3.19-2.13-2.28-3.19-5.09-3.19-8.43v-65.15c0-9.57-2.35-16.63-7.06-21.18-4.71-4.71-10.86-7.06-18.45-7.06s-14.43,2.73-19.59,8.2c-5.01,5.47-7.52,12.45-7.52,20.96h-18.91c0-9.87,2.13-18.53,6.38-25.97,4.25-7.59,10.17-13.52,17.77-17.77,7.75-4.25,16.55-6.38,26.42-6.38,8.66,0,16.33,1.9,23.01,5.69,6.68,3.8,11.85,9.42,15.49,16.86,3.8,7.29,5.69,16.17,5.69,26.65v65.15c0,3.34-1.06,6.15-3.19,8.43-2.13,2.13-4.94,3.19-8.43,3.19ZM512.39,881.09c-3.34,0-6.15-1.06-8.43-3.19-2.13-2.28-3.19-5.09-3.19-8.43v-101.37c0-3.49,1.06-6.3,3.19-8.43,2.28-2.13,5.09-3.19,8.43-3.19s6.3,1.06,8.43,3.19c2.13,2.13,3.19,4.94,3.19,8.43v101.37c0,3.34-1.06,6.15-3.19,8.43-2.13,2.13-4.94,3.19-8.43,3.19ZM588.47,881.09c-3.34,0-6.15-1.06-8.43-3.19-2.13-2.28-3.19-5.09-3.19-8.43v-65.15c0-9.57-2.35-16.63-7.06-21.18-4.71-4.71-10.86-7.06-18.45-7.06s-14.43,2.73-19.59,8.2c-5.16,5.47-7.75,12.45-7.75,20.96h-14.35c0-9.87,1.97-18.53,5.92-25.97,3.95-7.59,9.42-13.52,16.4-17.77s14.96-6.38,23.92-6.38,16.33,1.9,23.01,5.69c6.68,3.8,11.85,9.42,15.49,16.86,3.8,7.29,5.69,16.17,5.69,26.65v65.15c0,3.34-1.06,6.15-3.19,8.43-2.13,2.13-4.94,3.19-8.43,3.19ZM728.45,880.86c-3.34,0-6.15-1.06-8.43-3.19-2.13-2.28-3.19-5.09-3.19-8.43v-101.37c0-3.49,1.06-6.3,3.19-8.43,2.28-2.13,5.09-3.19,8.43-3.19s6.3,1.06,8.43,3.19,3.19,4.94,3.19,8.43v101.37c0,3.34-1.06,6.15-3.19,8.43-2.13,2.13-4.94,3.19-8.43,3.19ZM728.45,735.98c-4.1,0-7.67-1.44-10.71-4.33-2.89-3.04-4.33-6.61-4.33-10.71s1.44-7.59,4.33-10.48c3.04-3.04,6.61-4.56,10.71-4.56s7.59,1.52,10.48,4.56c3.04,2.89,4.56,6.38,4.56,10.48s-1.52,7.67-4.56,10.71c-2.89,2.89-6.38,4.33-10.48,4.33ZM812.9,880.86c-6.68,0-12.6-1.82-17.77-5.47-5.16-3.64-9.19-8.58-12.07-14.81-2.89-6.38-4.33-13.67-4.33-21.87v-124.38c0-3.34,1.06-6.07,3.19-8.2s4.86-3.19,8.2-3.19,6.07,1.06,8.2,3.19c2.13,2.13,3.19,4.86,3.19,8.2v124.38c0,5.62,1.06,10.25,3.19,13.9,2.13,3.64,4.86,5.47,8.2,5.47h5.69c3.04,0,5.47,1.06,7.29,3.19,1.97,2.13,2.96,4.86,2.96,8.2s-1.44,6.07-4.33,8.2c-2.89,2.13-6.61,3.19-11.16,3.19h-.46ZM873.45,835.3l-14.12-15.49,69.93-62.42c2.28-2.13,4.78-3.11,7.52-2.96,2.89.15,5.32,1.37,7.29,3.64,2.13,2.28,3.11,4.78,2.96,7.52-.15,2.73-1.37,5.16-3.64,7.29l-69.93,62.42ZM862.75,880.86c-3.34,0-6.07-.99-8.2-2.96-1.97-2.13-2.96-4.86-2.96-8.2v-155.58c0-3.34.99-6,2.96-7.97,2.13-2.13,4.86-3.19,8.2-3.19s6,1.06,7.97,3.19c2.13,1.97,3.19,4.63,3.19,7.97v155.58c0,3.34-1.06,6.07-3.19,8.2-1.97,1.97-4.63,2.96-7.97,2.96ZM944.07,879.72c-2.43,1.97-5.16,2.81-8.2,2.51-2.89-.15-5.32-1.44-7.29-3.87l-46.24-57.18,15.95-15.03,47.38,58.32c1.97,2.43,2.81,5.09,2.51,7.97-.15,2.73-1.52,5.16-4.1,7.29ZM1003.6,935.53c-1.52,0-3.34-.46-5.47-1.37-6.68-3.04-8.5-7.82-5.47-14.35l69.48-156.95c3.04-6.38,7.82-8.2,14.35-5.47,6.83,2.89,8.73,7.67,5.69,14.35l-69.71,156.72c-1.82,4.71-4.78,7.06-8.88,7.06ZM1030.48,875.85c-2.89,1.21-5.62,1.37-8.2.46-2.43-1.06-4.4-3.04-5.92-5.92l-52.17-99.09c-1.52-2.89-1.75-5.62-.68-8.2,1.21-2.73,3.27-4.71,6.15-5.92,2.89-1.21,5.62-1.29,8.2-.23,2.58.91,4.56,2.81,5.92,5.69l49.89,99.09c1.52,2.89,2.05,5.69,1.59,8.43-.3,2.58-1.9,4.48-4.78,5.69ZM1132.77,880.86c-2.43,0-4.71-.68-6.83-2.05-1.97-1.52-3.34-3.34-4.1-5.47l-33.71-101.14c-1.21-4.71-1.21-8.5,0-11.39,1.37-3.04,4.25-4.56,8.66-4.56,2.89,0,5.24.84,7.06,2.51,1.97,1.52,3.57,4.18,4.78,7.97l28.7,89.75h-7.97l27.11-91.57c.76-2.58,2.05-4.63,3.87-6.15,1.82-1.67,4.33-2.51,7.52-2.51s5.47.84,7.29,2.51c1.97,1.52,3.27,3.57,3.87,6.15l22.1,86.11h-3.42l26.88-84.28c2.13-6.99,6.07-10.48,11.85-10.48,4.25,0,7.14,1.52,8.66,4.56,1.52,2.89,1.44,6.68-.23,11.39l-33.71,101.14c-.61,2.13-1.9,3.95-3.87,5.47-1.97,1.37-4.25,2.05-6.83,2.05-2.43,0-4.71-.68-6.83-2.05-2.13-1.52-3.49-3.34-4.1-5.47l-23.46-86.79h2.28l-24.6,86.79c-.61,2.13-1.97,3.95-4.1,5.47-1.97,1.37-4.25,2.05-6.83,2.05ZM1317.28,881.77c-11.08,0-21.03-2.73-29.84-8.2-8.81-5.62-15.79-13.14-20.96-22.55-5.01-9.57-7.52-20.35-7.52-32.35s2.73-22.78,8.2-32.35c5.62-9.57,13.14-17.08,22.55-22.55,9.57-5.62,20.27-8.43,32.11-8.43s22.48,2.81,31.89,8.43c9.42,5.47,16.86,12.98,22.32,22.55,5.62,9.57,8.43,20.35,8.43,32.35h-8.88c0,12-2.58,22.78-7.75,32.35-5.01,9.42-11.92,16.93-20.73,22.55-8.81,5.47-18.76,8.2-29.84,8.2ZM1321.84,861.27c7.74,0,14.65-1.82,20.73-5.47,6.07-3.8,10.86-8.88,14.35-15.26,3.49-6.53,5.24-13.82,5.24-21.87s-1.75-15.49-5.24-21.87c-3.49-6.53-8.28-11.62-14.35-15.26-6.07-3.8-12.98-5.69-20.73-5.69s-14.5,1.9-20.72,5.69c-6.07,3.64-10.93,8.73-14.58,15.26-3.49,6.38-5.24,13.67-5.24,21.87s1.75,15.34,5.24,21.87c3.64,6.38,8.5,11.47,14.58,15.26,6.23,3.64,13.13,5.47,20.72,5.47ZM1372.87,881.09c-3.34,0-6.15-1.06-8.43-3.19-2.13-2.28-3.19-5.09-3.19-8.43v-34.85l4.33-24.15,18.91,8.2v50.8c0,3.34-1.14,6.15-3.42,8.43-2.13,2.13-4.86,3.19-8.2,3.19ZM1432.97,880.86c-3.34,0-6.15-1.06-8.43-3.19-2.13-2.28-3.19-5.09-3.19-8.43v-101.37c0-3.49,1.06-6.3,3.19-8.43,2.28-2.13,5.09-3.19,8.43-3.19s6.3,1.06,8.43,3.19c2.13,2.13,3.19,4.94,3.19,8.43v101.37c0,3.34-1.06,6.15-3.19,8.43-2.13,2.13-4.94,3.19-8.43,3.19ZM1432.97,735.98c-4.1,0-7.67-1.44-10.71-4.33-2.89-3.04-4.33-6.61-4.33-10.71s1.44-7.59,4.33-10.48c3.04-3.04,6.61-4.56,10.71-4.56s7.59,1.52,10.48,4.56c3.04,2.89,4.56,6.38,4.56,10.48s-1.52,7.67-4.56,10.71c-2.89,2.89-6.38,4.33-10.48,4.33Z"/>
</svg>