<svg width="1448" height="1552" viewBox="0 0 1448 1552" fill="none" xmlns="http://www.w3.org/2000/svg">
<rect width="1448" height="1552" fill="white"/>
<path d="M943.424 539.576C966.468 539.577 985.148 558.257 985.148 581.301C985.148 586.685 984.127 591.83 982.271 596.555L982.366 596.601L981.795 597.709C981.02 599.52 980.123 601.267 979.109 602.935L831.363 890.291C824.873 904.906 810.236 915.1 793.214 915.1C770.637 915.1 752.251 897.169 751.515 874.772L751.488 874.767L741.24 768.179C740.175 757.097 725.295 754.276 720.247 764.2L656.159 890.201C649.69 904.864 635.027 915.1 617.97 915.1C595.393 915.1 577.007 897.169 576.271 874.772L576.244 874.767V770.685C576.244 759.371 561.32 755.277 555.548 765.008L478.886 894.239L478.87 894.23C471.657 906.705 458.172 915.1 442.725 915.1C419.681 915.1 401 896.419 401 873.375C401 864.585 403.72 856.431 408.361 849.705L573.463 560.439L573.479 560.444C580.693 547.97 594.178 539.577 609.624 539.576C632.668 539.576 651.349 558.257 651.35 581.301C651.35 582.687 651.279 584.057 651.147 585.409L651.349 585.474V680.704C651.349 692.246 666.753 696.154 672.256 686.009L740.362 560.439L740.38 560.443C747.594 547.969 761.079 539.576 776.524 539.576C798.626 539.577 816.711 556.761 818.153 578.497L818.249 578.52V680.704C818.249 692.246 833.654 696.154 839.156 686.009L907.262 560.439L907.277 560.446C914.491 547.97 927.977 539.576 943.424 539.576Z" fill="url(#paint0_linear_7_442)"/>
<path d="M1011.38 444.625C999.5 432.75 999.5 409 990 409C980.5 409 980.5 432.75 968.625 444.625C956.75 456.5 933 456.5 933 466C933 475.5 956.75 475.5 968.625 487.375C980.5 499.25 980.5 523 990 523C999.5 523 999.5 499.25 1011.38 487.375C1023.25 475.5 1047 475.5 1047 466C1047 456.5 1023.25 456.5 1011.38 444.625Z" fill="#00FF26"/>
<path d="M523.437 1109.01C521.316 1109.01 519.532 1108.33 518.086 1106.98C516.735 1105.53 516.06 1103.75 516.06 1101.63V1060.26C516.06 1054.18 514.566 1049.7 511.576 1046.81C508.587 1043.82 504.682 1042.32 499.86 1042.32C494.846 1042.32 490.699 1044.06 487.421 1047.53C484.238 1051 482.647 1055.44 482.647 1060.84H470.642C470.642 1054.57 471.992 1049.07 474.692 1044.35C477.392 1039.53 481.153 1035.77 485.974 1033.07C490.892 1030.37 496.485 1029.02 502.753 1029.02C508.25 1029.02 513.119 1030.22 517.362 1032.63C521.605 1035.04 524.884 1038.61 527.198 1043.34C529.609 1047.96 530.814 1053.61 530.814 1060.26V1101.63C530.814 1103.75 530.139 1105.53 528.789 1106.98C527.439 1108.33 525.655 1109.01 523.437 1109.01ZM426.958 1109.01C424.837 1109.01 423.053 1108.33 421.606 1106.98C420.256 1105.53 419.581 1103.75 419.581 1101.63V1037.26C419.581 1035.04 420.256 1033.26 421.606 1031.91C423.053 1030.56 424.837 1029.88 426.958 1029.88C429.176 1029.88 430.96 1030.56 432.31 1031.91C433.66 1033.26 434.335 1035.04 434.335 1037.26V1101.63C434.335 1103.75 433.66 1105.53 432.31 1106.98C430.96 1108.33 429.176 1109.01 426.958 1109.01ZM475.27 1109.01C473.149 1109.01 471.365 1108.33 469.918 1106.98C468.568 1105.53 467.893 1103.75 467.893 1101.63V1060.26C467.893 1054.18 466.399 1049.7 463.409 1046.81C460.42 1043.82 456.514 1042.32 451.693 1042.32C446.678 1042.32 442.532 1044.06 439.253 1047.53C435.975 1051 434.335 1055.44 434.335 1060.84H425.223C425.223 1054.57 426.476 1049.07 428.983 1044.35C431.491 1039.53 434.962 1035.77 439.398 1033.07C443.834 1030.37 448.896 1029.02 454.586 1029.02C460.082 1029.02 464.952 1030.22 469.195 1032.63C473.438 1035.04 476.717 1038.61 479.031 1043.34C481.442 1047.96 482.647 1053.61 482.647 1060.26V1101.63C482.647 1103.75 481.972 1105.53 480.622 1106.98C479.272 1108.33 477.488 1109.01 475.27 1109.01ZM564.152 1108.86C562.03 1108.86 560.247 1108.19 558.8 1106.84C557.45 1105.39 556.775 1103.6 556.775 1101.48V1037.12C556.775 1034.9 557.45 1033.11 558.8 1031.76C560.247 1030.41 562.03 1029.74 564.152 1029.74C566.37 1029.74 568.154 1030.41 569.504 1031.76C570.854 1033.11 571.529 1034.9 571.529 1037.12V1101.48C571.529 1103.6 570.854 1105.39 569.504 1106.84C568.154 1108.19 566.37 1108.86 564.152 1108.86ZM564.152 1016.87C561.548 1016.87 559.282 1015.95 557.354 1014.12C555.521 1012.19 554.605 1009.92 554.605 1007.32C554.605 1004.72 555.521 1002.5 557.354 1000.67C559.282 998.736 561.548 997.772 564.152 997.772C566.756 997.772 568.974 998.736 570.806 1000.67C572.734 1002.5 573.699 1004.72 573.699 1007.32C573.699 1009.92 572.734 1012.19 570.806 1014.12C568.974 1015.95 566.756 1016.87 564.152 1016.87ZM617.781 1108.86C613.538 1108.86 609.777 1107.7 606.498 1105.39C603.22 1103.07 600.664 1099.94 598.832 1095.99C597 1091.94 596.084 1087.31 596.084 1082.1V1003.12C596.084 1001 596.759 999.267 598.109 997.917C599.459 996.567 601.195 995.892 603.316 995.892C605.438 995.892 607.173 996.567 608.523 997.917C609.873 999.267 610.548 1001 610.548 1003.12V1082.1C610.548 1085.67 611.223 1088.61 612.573 1090.92C613.923 1093.24 615.659 1094.4 617.781 1094.4H621.397C623.325 1094.4 624.868 1095.07 626.026 1096.42C627.279 1097.77 627.906 1099.51 627.906 1101.63C627.906 1103.75 626.99 1105.49 625.158 1106.84C623.325 1108.19 620.963 1108.86 618.07 1108.86H617.781ZM656.228 1079.93L647.26 1070.1L691.667 1030.46C693.113 1029.11 694.704 1028.49 696.44 1028.58C698.272 1028.68 699.815 1029.45 701.069 1030.9C702.419 1032.34 703.046 1033.93 702.949 1035.67C702.853 1037.41 702.081 1038.95 700.635 1040.3L656.228 1079.93ZM649.43 1108.86C647.309 1108.86 645.573 1108.23 644.223 1106.98C642.969 1105.63 642.342 1103.89 642.342 1101.77V1002.98C642.342 1000.86 642.969 999.17 644.223 997.917C645.573 996.567 647.309 995.892 649.43 995.892C651.551 995.892 653.239 996.567 654.493 997.917C655.843 999.17 656.518 1000.86 656.518 1002.98V1101.77C656.518 1103.89 655.843 1105.63 654.493 1106.98C653.239 1108.23 651.551 1108.86 649.43 1108.86ZM701.069 1108.14C699.526 1109.39 697.79 1109.92 695.861 1109.73C694.029 1109.63 692.486 1108.81 691.233 1107.27L661.87 1070.96L671.995 1061.42L702.081 1098.45C703.335 1099.99 703.865 1101.68 703.672 1103.51C703.576 1105.24 702.708 1106.79 701.069 1108.14ZM738.87 1143.58C737.906 1143.58 736.749 1143.29 735.398 1142.71C731.156 1140.78 729.998 1137.74 731.927 1133.59L776.044 1033.93C777.973 1029.88 781.01 1028.73 785.157 1030.46C789.496 1032.29 790.702 1035.33 788.773 1039.57L744.511 1139.09C743.354 1142.08 741.474 1143.58 738.87 1143.58ZM755.938 1105.68C754.106 1106.45 752.37 1106.55 750.731 1105.97C749.188 1105.29 747.934 1104.04 746.97 1102.21L713.846 1039.29C712.882 1037.45 712.737 1035.72 713.412 1034.08C714.184 1032.34 715.486 1031.09 717.318 1030.32C719.15 1029.55 720.886 1029.5 722.525 1030.17C724.164 1030.75 725.418 1031.96 726.286 1033.79L757.963 1096.71C758.928 1098.54 759.265 1100.33 758.976 1102.06C758.783 1103.7 757.77 1104.91 755.938 1105.68ZM820.893 1108.86C819.351 1108.86 817.904 1108.43 816.554 1107.56C815.3 1106.59 814.433 1105.44 813.95 1104.09L792.543 1039.86C791.771 1036.87 791.771 1034.46 792.543 1032.63C793.411 1030.7 795.243 1029.74 798.039 1029.74C799.872 1029.74 801.366 1030.27 802.523 1031.33C803.777 1032.29 804.79 1033.98 805.561 1036.39L823.786 1093.38H818.724L835.937 1035.24C836.419 1033.6 837.239 1032.29 838.396 1031.33C839.553 1030.27 841.144 1029.74 843.169 1029.74C845.098 1029.74 846.641 1030.27 847.798 1031.33C849.051 1032.29 849.871 1033.6 850.257 1035.24L864.287 1089.91H862.118L879.186 1036.39C880.536 1031.96 883.043 1029.74 886.708 1029.74C889.408 1029.74 891.24 1030.7 892.204 1032.63C893.168 1034.46 893.12 1036.87 892.059 1039.86L870.652 1104.09C870.266 1105.44 869.446 1106.59 868.193 1107.56C866.939 1108.43 865.493 1108.86 863.853 1108.86C862.311 1108.86 860.864 1108.43 859.514 1107.56C858.164 1106.59 857.296 1105.44 856.91 1104.09L842.012 1048.98H843.458L827.836 1104.09C827.451 1105.44 826.583 1106.59 825.233 1107.56C823.979 1108.43 822.533 1108.86 820.893 1108.86ZM938.058 1109.44C931.019 1109.44 924.702 1107.7 919.109 1104.23C913.516 1100.66 909.081 1095.89 905.802 1089.91C902.62 1083.84 901.029 1076.99 901.029 1069.37C901.029 1061.75 902.764 1054.91 906.236 1048.83C909.804 1042.76 914.577 1037.98 920.556 1034.51C926.631 1030.94 933.429 1029.16 940.951 1029.16C948.473 1029.16 955.223 1030.94 961.202 1034.51C967.18 1037.98 971.905 1042.76 975.377 1048.83C978.945 1054.91 980.729 1061.75 980.729 1069.37H975.088C975.088 1076.99 973.448 1083.84 970.17 1089.91C966.987 1095.89 962.6 1100.66 957.007 1104.23C951.414 1107.7 945.098 1109.44 938.058 1109.44ZM940.951 1096.42C945.869 1096.42 950.257 1095.26 954.114 1092.95C957.971 1090.54 961.009 1087.31 963.227 1083.26C965.444 1079.11 966.553 1074.48 966.553 1069.37C966.553 1064.16 965.444 1059.54 963.227 1055.49C961.009 1051.34 957.971 1048.11 954.114 1045.79C950.257 1043.38 945.869 1042.18 940.951 1042.18C936.129 1042.18 931.742 1043.38 927.788 1045.79C923.931 1048.11 920.845 1051.34 918.531 1055.49C916.313 1059.54 915.204 1064.16 915.204 1069.37C915.204 1074.48 916.313 1079.11 918.531 1083.26C920.845 1087.31 923.931 1090.54 927.788 1092.95C931.742 1095.26 936.129 1096.42 940.951 1096.42ZM973.352 1109.01C971.23 1109.01 969.446 1108.33 968 1106.98C966.65 1105.53 965.975 1103.75 965.975 1101.63V1079.5L968.723 1064.16L980.729 1069.37V1101.63C980.729 1103.75 980.006 1105.53 978.559 1106.98C977.209 1108.33 975.473 1109.01 973.352 1109.01ZM1011.51 1108.86C1009.39 1108.86 1007.6 1108.19 1006.16 1106.84C1004.81 1105.39 1004.13 1103.6 1004.13 1101.48V1037.12C1004.13 1034.9 1004.81 1033.11 1006.16 1031.76C1007.6 1030.41 1009.39 1029.74 1011.51 1029.74C1013.73 1029.74 1015.51 1030.41 1016.86 1031.76C1018.21 1033.11 1018.89 1034.9 1018.89 1037.12V1101.48C1018.89 1103.6 1018.21 1105.39 1016.86 1106.84C1015.51 1108.19 1013.73 1108.86 1011.51 1108.86ZM1011.51 1016.87C1008.91 1016.87 1006.64 1015.95 1004.71 1014.12C1002.88 1012.19 1001.96 1009.92 1001.96 1007.32C1001.96 1004.72 1002.88 1002.5 1004.71 1000.67C1006.64 998.736 1008.91 997.772 1011.51 997.772C1014.11 997.772 1016.33 998.736 1018.16 1000.67C1020.09 1002.5 1021.06 1004.72 1021.06 1007.32C1021.06 1009.92 1020.09 1012.19 1018.16 1014.12C1016.33 1015.95 1014.11 1016.87 1011.51 1016.87Z" fill="black"/>
<defs>
<linearGradient id="paint0_linear_7_442" x1="985.148" y1="727.338" x2="401" y2="727.338" gradientUnits="userSpaceOnUse">
<stop stop-color="#4089F5"/>
<stop offset="1" stop-color="#232977"/>
</linearGradient>
</defs>
</svg>
